<?xml version="1.0" standalone="no"?>
<!DOCTYPE svg PUBLIC "-//W3C//DTD SVG 20010904//EN"
 "http://www.w3.org/TR/2001/REC-SVG-20010904/DTD/svg10.dtd">
<svg version="1.0" xmlns="http://www.w3.org/2000/svg"
 width="260.000000pt" height="260.000000pt" viewBox="0 0 260.000000 260.000000"
 preserveAspectRatio="xMidYMid meet">
<metadata>
Created by potrace 1.11, written by Peter Selinger 2001-2013
</metadata>
<g transform="translate(0.000000,260.000000) scale(0.100000,-0.100000)"
fill="#000000" stroke="none">
<path d="M893 1652 c-31 -5 -42 -22 -49 -78 -4 -32 -14 -57 -29 -71 -14 -13
-28 -45 -35 -78 -6 -30 -16 -55 -23 -55 -24 0 -77 -46 -77 -67 0 -23 26 -43
47 -36 9 3 8 -8 -3 -44 -38 -117 -39 -147 -9 -177 32 -31 52 -8 100 114 l46
118 42 7 c23 4 50 9 59 11 13 4 22 -9 39 -56 35 -96 102 -150 128 -101 11 20
-25 143 -86 291 -20 47 -38 101 -41 120 -5 40 -44 96 -70 102 -9 2 -27 2 -39
0z"/>
<path d="M1675 1649 c-108 -6 -170 -27 -180 -60 -9 -27 12 -49 46 -49 22 0 29
-5 29 -19 0 -11 -4 -23 -10 -26 -13 -8 -13 -118 -1 -130 10 -10 17 -196 10
-245 -3 -20 4 -28 39 -48 101 -57 179 -47 227 26 16 25 30 62 31 81 2 20 12
67 23 106 24 78 27 136 10 168 -17 31 -28 37 -73 37 l-40 0 28 29 c17 17 30
44 33 68 8 63 -14 71 -172 62z m127 -276 c-14 -13 -25 -45 -37 -103 -16 -84
-37 -119 -72 -120 -19 0 -17 143 2 180 9 17 12 30 8 31 -18 2 65 28 91 28 28
1 28 1 8 -16z"/>
<path d="M1724 1345 c-4 -9 -2 -21 4 -27 15 -15 44 -1 40 19 -4 23 -36 29 -44
8z"/>
</g>
</svg>
